<svg width="15" height="15" viewBox="0 0 15 15" fill="none" xmlns="http://www.w3.org/2000/svg">
<g clip-path="url(#clip0_419_637)">
<path d="M7.30709 -0.144592C4.31721 -0.144592 3.4428 -0.141507 3.27294 -0.127403C2.65938 -0.0763886 2.27757 0.0202502 1.86164 0.227386C1.5411 0.386613 1.2883 0.571162 1.0388 0.829889C0.584404 1.3017 0.30902 1.88208 0.209333 2.57211C0.160865 2.90698 0.146772 2.9753 0.143907 4.6863C0.142805 5.25662 0.143907 6.00719 0.143907 7.0139C0.143907 10.0021 0.147212 10.8759 0.161531 11.0456C0.211101 11.6428 0.304732 12.0186 0.503015 12.4295C0.881953 13.2163 1.60567 13.8069 2.45822 14.0273C2.75344 14.1033 3.07949 14.1452 3.49808 14.165C3.67543 14.1727 5.48308 14.1782 7.29176 14.1782C9.10044 14.1782 10.9093 14.176 11.0821 14.1672C11.5668 14.1444 11.8483 14.1066 12.1595 14.0262C12.5822 13.9177 12.9762 13.7182 13.3139 13.4417C13.6516 13.1652 13.9249 12.8183 14.1147 12.4252C14.3091 12.0241 14.4077 11.634 14.4523 11.068C14.462 10.9446 14.466 8.97703 14.466 7.01208C14.466 5.04685 14.4616 3.08291 14.452 2.95945C14.4076 2.38439 14.3084 1.99767 14.1078 1.5889C13.9431 1.2542 13.7603 1.0043 13.4948 0.748795C13.021 0.296152 12.4416 0.0206813 11.7511 -0.0789194C11.4167 -0.12729 11.3499 -0.141615 9.63821 -0.144589L7.30709 -0.144592Z" fill="url(#paint0_radial_419_637)"/>
<path d="M7.30709 -0.144592C4.31721 -0.144592 3.4428 -0.141507 3.27294 -0.127403C2.65938 -0.0763886 2.27757 0.0202502 1.86164 0.227386C1.5411 0.386613 1.2883 0.571162 1.0388 0.829889C0.584404 1.3017 0.30902 1.88208 0.209333 2.57211C0.160865 2.90698 0.146772 2.9753 0.143907 4.6863C0.142805 5.25662 0.143907 6.00719 0.143907 7.0139C0.143907 10.0021 0.147212 10.8759 0.161531 11.0456C0.211101 11.6428 0.304732 12.0186 0.503015 12.4295C0.881953 13.2163 1.60567 13.8069 2.45822 14.0273C2.75344 14.1033 3.07949 14.1452 3.49808 14.165C3.67543 14.1727 5.48308 14.1782 7.29176 14.1782C9.10044 14.1782 10.9093 14.176 11.0821 14.1672C11.5668 14.1444 11.8483 14.1066 12.1595 14.0262C12.5822 13.9177 12.9762 13.7182 13.3139 13.4417C13.6516 13.1652 13.9249 12.8183 14.1147 12.4252C14.3091 12.0241 14.4077 11.634 14.4523 11.068C14.462 10.9446 14.466 8.97703 14.466 7.01208C14.466 5.04685 14.4616 3.08291 14.452 2.95945C14.4076 2.38439 14.3084 1.99767 14.1078 1.5889C13.9431 1.2542 13.7603 1.0043 13.4948 0.748795C13.021 0.296152 12.4416 0.0206813 11.7511 -0.0789194C11.4167 -0.12729 11.3499 -0.141615 9.63821 -0.144589L7.30709 -0.144592Z" fill="url(#paint1_radial_419_637)"/>
<path d="M7.30481 9.24895C8.56147 9.24895 9.5802 8.23022 9.5802 6.97356C9.5802 5.71689 8.56147 4.69817 7.30481 4.69817C6.04815 4.69817 5.02942 5.71689 5.02942 6.97356C5.02942 8.23022 6.04815 9.24895 7.30481 9.24895Z" stroke="white" stroke-width="1.03155"/>
<path d="M9.49743 2.172H5.1121C3.63529 2.172 2.43811 3.36918 2.43811 4.84598V9.18733C2.43811 10.6641 3.63529 11.8613 5.1121 11.8613H9.49743C10.9742 11.8613 12.1714 10.6641 12.1714 9.18733V4.84598C12.1714 3.36918 10.9742 2.172 9.49743 2.172Z" stroke="white" stroke-width="1.03155"/>
<path d="M10.2005 4.82502C10.5575 4.82502 10.8469 4.53559 10.8469 4.17856C10.8469 3.82153 10.5575 3.5321 10.2005 3.5321C9.84346 3.5321 9.55403 3.82153 9.55403 4.17856C9.55403 4.53559 9.84346 4.82502 10.2005 4.82502Z" fill="white"/>
</g>
<defs>
<radialGradient id="paint0_radial_419_637" cx="0" cy="0" r="1" gradientUnits="userSpaceOnUse" gradientTransform="translate(3.94731 15.2815) rotate(-90) scale(14.1947 13.2022)">
<stop stop-color="#FFDD55"/>
<stop offset="0.1" stop-color="#FFDD55"/>
<stop offset="0.5" stop-color="#FF543E"/>
<stop offset="1" stop-color="#C837AB"/>
</radialGradient>
<radialGradient id="paint1_radial_419_637" cx="0" cy="0" r="1" gradientTransform="matrix(1.24537 6.22175 -25.6457 5.13641 -2.2567 0.885798)" gradientUnits="userSpaceOnUse">
<stop stop-color="#3771C8"/>
<stop offset="0.128" stop-color="#3771C8"/>
<stop offset="1" stop-color="#6600FF" stop-opacity="0"/>
</radialGradient>
<clipPath id="clip0_419_637">
<rect width="14.3228" height="14.3228" rx="3.27378" fill="white"/>
</clipPath>
</defs>
</svg>
