<svg width="551" height="327" viewBox="0 0 551 327" fill="none" xmlns="http://www.w3.org/2000/svg">
<path d="M420.998 143.381H390.682L336.075 50.1638V143.381H307.734V1.77746H338.05L392.657 95.0939V1.77746H420.998V143.381Z" fill="white"/>
<path d="M550.665 143.381H453.596V1.77746H550.665V30.118H481.937V58.4586H528.447V86.7991H481.937V115.041H550.665V143.381Z" fill="white"/>
<path d="M386.568 270.089V241.748C386.568 237.864 385.811 234.211 384.297 230.787C382.849 227.298 380.841 224.27 378.273 221.702C375.706 219.135 372.678 217.127 369.188 215.679C365.765 214.165 362.112 213.408 358.227 213.408C354.343 213.408 350.657 214.165 347.168 215.679C343.745 217.127 340.749 219.135 338.182 221.702C335.614 224.27 333.574 227.298 332.059 230.787C330.611 234.211 329.887 237.864 329.887 241.748V270.089H386.568ZM414.909 326.671H386.568V298.331H329.887V326.671H301.645V241.748C301.645 233.914 303.126 226.574 306.089 219.728C309.051 212.815 313.067 206.792 318.136 201.657C323.271 196.522 329.262 192.473 336.108 189.511C343.02 186.548 350.393 185.067 358.227 185.067C366.061 185.067 373.402 186.548 380.248 189.511C387.161 192.473 393.184 196.522 398.319 201.657C403.454 206.792 407.503 212.815 410.465 219.728C413.427 226.574 414.909 233.914 414.909 241.748V326.671Z" fill="white"/>
<path d="M507.842 326.671H479.6V282.333C473.346 280.754 467.586 278.219 462.319 274.73C457.119 271.241 452.642 267.093 448.89 262.288C445.137 257.416 442.208 252.051 440.101 246.192C438.06 240.267 437.04 234.046 437.04 227.529V185.067H465.381V227.529C465.381 231.413 466.105 235.099 467.553 238.588C469.067 242.012 471.108 245.007 473.675 247.574C476.243 250.142 479.238 252.183 482.661 253.697C486.15 255.145 489.837 255.869 493.721 255.869C497.605 255.869 501.259 255.145 504.682 253.697C508.171 252.183 511.199 250.142 513.767 247.574C516.334 245.007 518.342 242.012 519.79 238.588C521.305 235.099 522.062 231.413 522.062 227.529V185.067H550.665L550.304 227.529C550.304 234.046 549.25 240.267 547.144 246.192C545.103 252.051 542.206 257.416 538.454 262.288C534.701 267.093 530.225 271.241 525.024 274.73C519.823 278.219 514.096 280.754 507.842 282.333V326.671Z" fill="white"/>
<path fill-rule="evenodd" clip-rule="evenodd" d="M283.361 92.6252C285.138 86.3712 286.027 79.8868 286.027 73.1719C286.027 66.4571 285.138 59.9727 283.361 53.7187C281.649 47.4647 279.213 41.6386 276.053 36.2404C272.893 30.8422 269.075 25.9048 264.599 21.4282C260.122 16.9517 255.185 13.1334 249.787 9.97351C244.388 6.81358 238.562 4.37781 232.308 2.66618C226.054 0.888728 219.57 0 212.855 0C206.14 0 199.656 0.888728 193.402 2.66618C187.213 4.37781 181.387 6.81358 175.923 9.97351C170.525 13.1334 165.588 16.9517 161.111 21.4282C156.635 25.9048 152.784 30.8422 149.558 36.2404C146.398 41.6386 143.929 47.4647 142.152 53.7187C140.44 59.9727 139.584 66.4571 139.584 73.1719H167.727C167.727 66.9838 168.912 61.1577 171.282 55.6936C173.652 50.1638 176.878 45.391 180.959 41.3752C185.041 37.2937 189.814 34.0679 195.278 31.698C200.742 29.328 206.601 28.1431 212.855 28.1431C219.043 28.1431 224.869 29.328 230.333 31.698C235.863 34.0679 240.636 37.2937 244.652 41.3752C248.733 45.391 251.959 50.1638 254.329 55.6936C256.699 61.1577 257.884 66.9838 257.884 73.1719C257.884 79.3601 256.699 85.1862 254.329 90.6503C251.959 96.0485 248.733 100.788 244.652 104.87C240.636 108.951 235.863 112.177 230.333 114.547C224.869 116.917 219.043 118.102 212.855 118.102V146.443C219.57 146.443 226.054 145.554 232.308 143.776C238.562 142.065 244.388 139.629 249.787 136.469C255.185 133.243 260.122 129.392 264.599 124.916C269.075 120.439 272.893 115.502 276.053 110.104C279.213 104.64 281.649 98.8134 283.361 92.6252Z" fill="white"/>
<path d="M165.569 304.105L116.053 254.39L165.569 204.675C192.915 177.218 237.252 177.218 264.599 204.675C291.945 232.132 291.945 276.649 264.599 304.105C237.252 331.563 192.915 331.563 165.569 304.105ZM149.063 254.39L182.073 287.534C200.304 305.838 229.863 305.838 248.094 287.534C266.325 269.229 266.325 239.552 248.094 221.247C229.863 202.942 200.304 202.942 182.073 221.247L149.063 254.39Z" fill="white"/>
<path d="M163.948 118.513H189.737V146.145H163.948V118.513Z" fill="white"/>
<path d="M116.974 118.513H142.763V146.145H116.974V118.513Z" fill="white"/>
<path d="M69.079 118.513H94.8685V146.145H69.079V118.513Z" fill="white"/>
<path d="M69.079 237.329H94.8685V264.961H69.079V237.329Z" fill="white"/>
<path d="M13.8158 150.722L30.9054 131.408L51.5993 149.718L34.5098 169.033L13.8158 150.722Z" fill="white"/>
<path d="M32.9497 220.75L53.0651 236.889L35.7733 258.441L15.6579 242.302L32.9497 220.75Z" fill="white"/>
<path d="M27.6316 181.145L27.6316 206.934H0L1.1273e-06 181.145H27.6316Z" fill="white"/>
</svg>
