<svg width="15" height="15" viewBox="0 0 15 15" fill="none" xmlns="http://www.w3.org/2000/svg">
<g clip-path="url(#clip0_419_644)">
<path fill-rule="evenodd" clip-rule="evenodd" d="M1.52588e-05 14.3227L14.3228 14.3227V-6.10352e-05L1.52588e-05 -6.10352e-05L1.52588e-05 14.3227Z" fill="black"/>
<path fill-rule="evenodd" clip-rule="evenodd" d="M8.56185 3.31309C8.52489 3.15599 8.49716 2.98964 8.49716 2.8233H7.11099V5.59565V6.04847V8.42345C7.11099 9.07033 6.55652 9.59708 5.90964 9.59708C5.26276 9.59708 4.74525 9.07957 4.74525 8.43269C4.74525 7.78581 5.272 7.25906 5.91888 7.25906C6.04825 7.25906 6.16839 7.27755 6.28853 7.31451V5.8082C6.16839 5.78972 6.04825 5.78048 5.91888 5.78048C4.44953 5.78048 3.26666 6.96335 3.26666 8.43269C3.26666 9.8928 4.44953 11.0849 5.91888 11.0849C7.3605 11.0849 8.56185 9.92976 8.59882 8.49738V8.43269V5.62338C9.14405 5.99302 9.77245 6.21481 10.4748 6.21481V4.79167C9.5599 4.79167 8.78364 4.16327 8.56185 3.31309Z" fill="#25F4EE"/>
<path fill-rule="evenodd" clip-rule="evenodd" d="M9.02392 3.77512C8.98696 3.61802 8.95923 3.45168 8.95923 3.28534H7.57306V6.05769V6.51051V8.88549C7.57306 9.53237 7.01859 10.0591 6.3717 10.0591C5.72482 10.0591 5.20732 9.54161 5.20732 8.89473C5.20732 8.24785 5.73406 7.7211 6.38095 7.7211C6.51032 7.7211 6.63046 7.73958 6.75059 7.77655V6.27024C6.63046 6.25175 6.51032 6.24251 6.38095 6.24251C4.9116 6.24251 3.72873 7.42538 3.72873 8.89473C3.72873 10.3548 4.9116 11.5469 6.38095 11.5469C7.82257 11.5469 9.02392 10.3918 9.06088 8.95942V8.89473V6.08541C9.60611 6.45506 10.2345 6.67685 10.9368 6.67685V5.25371C10.022 5.25371 9.24571 4.62531 9.02392 3.77512Z" fill="white"/>
<path fill-rule="evenodd" clip-rule="evenodd" d="M8.56187 3.28528C8.56187 3.29452 8.57111 3.30376 8.57111 3.313C8.69125 3.76582 8.96848 4.16319 9.33813 4.43118C9.19951 4.23712 9.09786 4.01533 9.03317 3.77506C8.99621 3.61796 8.96848 3.45162 8.96848 3.28528H8.56187ZM10.4748 5.1982V6.20549C9.76322 6.20549 9.14406 5.9837 8.59883 5.61405V8.42337V8.48806C8.56187 9.92044 7.36052 11.0756 5.9189 11.0756C5.30898 11.0756 4.73603 10.863 4.29245 10.5211C4.77299 11.1403 5.53077 11.5376 6.38095 11.5376C7.82258 11.5376 9.02393 10.3825 9.06089 8.95011V8.88543V6.08535C9.60612 6.455 10.2345 6.67679 10.9369 6.67679V5.25365C10.7798 5.25365 10.6227 5.23516 10.4748 5.1982ZM6.28854 6.24245V7.31443C6.16841 7.27746 6.04827 7.25898 5.9189 7.25898C5.27201 7.25898 4.74527 7.78573 4.74527 8.43261C4.74527 8.87618 4.99478 9.25507 5.35518 9.45838C5.26277 9.29204 5.20733 9.09797 5.20733 8.89467C5.20733 8.24779 5.73407 7.72104 6.38095 7.72104C6.51033 7.72104 6.63047 7.73952 6.7506 7.77649V6.27018C6.63047 6.25169 6.51033 6.24245 6.38095 6.24245C6.34399 6.24245 6.31627 6.24245 6.28854 6.24245Z" fill="#FE2C55"/>
</g>
<defs>
<clipPath id="clip0_419_644">
<rect width="14.3228" height="14.3228" rx="3.683" fill="white"/>
</clipPath>
</defs>
</svg>
